<?xml version="1.0" encoding="UTF-8"?>
<svg xmlns="http://www.w3.org/2000/svg" xmlns:xlink="http://www.w3.org/1999/xlink" width="48px" height="48px" viewBox="0 0 48 48" version="1.1">
<g id="surface1">
<path style=" stroke:none;fill-rule:nonzero;fill:rgb(0.392157%,0%,0.784314%);fill-opacity:1;" d="M 23 25.773438 C 23 25.773438 20.324219 20.617188 20.425781 16.851562 C 20.496094 14.15625 26.566406 11.496094 28.949219 7.632812 C 31.332031 3.765625 28.65625 0 28.65625 0 C 28.65625 0 29.25 2.777344 27.664062 5.648438 C 26.078125 8.523438 20.222656 10.210938 17.945312 15.167969 C 15.671875 20.125 23 25.773438 23 25.773438 Z M 23 25.773438 "/>
<path style=" stroke:none;fill-rule:nonzero;fill:rgb(0.392157%,0%,0.784314%);fill-opacity:1;" d="M 33.015625 10.109375 C 33.015625 10.109375 23.898438 13.582031 23.898438 17.542969 C 23.898438 21.511719 26.375 22.800781 26.773438 24.085938 C 27.167969 25.378906 26.078125 27.558594 26.078125 27.558594 C 26.078125 27.558594 29.648438 25.078125 29.050781 22.203125 C 28.453125 19.328125 25.679688 18.433594 27.269531 15.5625 C 28.328125 13.636719 33.015625 10.109375 33.015625 10.109375 Z M 33.015625 10.109375 "/>
<path style=" stroke:none;fill-rule:nonzero;fill:rgb(0.392157%,0%,0.784314%);fill-opacity:1;" d="M 22.011719 31.011719 C 30.441406 30.710938 33.515625 28.050781 33.515625 28.050781 C 28.0625 29.539062 13.589844 29.441406 13.488281 28.351562 C 13.390625 27.261719 17.945312 26.367188 17.945312 26.367188 C 17.945312 26.367188 10.8125 26.367188 10.214844 28.152344 C 9.621094 29.933594 13.59375 31.308594 22.011719 31.011719 Z M 22.011719 31.011719 "/>
<path style=" stroke:none;fill-rule:nonzero;fill:rgb(0.392157%,0%,0.784314%);fill-opacity:1;" d="M 34.207031 35.191406 C 34.207031 35.191406 42.453125 33.429688 41.636719 28.949219 C 40.648438 23.496094 34.898438 26.570312 34.898438 26.570312 C 34.898438 26.570312 38.964844 26.570312 39.359375 29.046875 C 39.757812 31.523438 34.207031 35.191406 34.207031 35.191406 Z M 34.207031 35.191406 "/>
<path style=" stroke:none;fill-rule:nonzero;fill:rgb(0.392157%,0%,0.784314%);fill-opacity:1;" d="M 30.140625 32.8125 C 30.140625 32.8125 28.0625 33.359375 24.984375 33.703125 C 20.855469 34.167969 15.863281 33.800781 15.464844 33.109375 C 15.074219 32.414062 16.160156 32.019531 16.160156 32.019531 C 11.203125 33.207031 13.914062 35.285156 19.726562 35.6875 C 24.707031 36.027344 32.121094 34.199219 32.121094 34.199219 Z M 30.140625 32.8125 "/>
<path style=" stroke:none;fill-rule:nonzero;fill:rgb(0.392157%,0%,0.784314%);fill-opacity:1;" d="M 17.355469 37.144531 C 17.355469 37.144531 15.105469 37.207031 14.972656 38.398438 C 14.84375 39.578125 16.359375 40.644531 21.910156 40.972656 C 27.464844 41.300781 31.363281 39.453125 31.363281 39.453125 L 28.855469 37.929688 C 28.855469 37.929688 27.265625 38.261719 24.820312 38.59375 C 22.375 38.925781 17.355469 38.328125 17.15625 37.867188 C 16.957031 37.40625 17.355469 37.144531 17.355469 37.144531 Z M 17.355469 37.144531 "/>
<path style=" stroke:none;fill-rule:nonzero;fill:rgb(0.392157%,0%,0.784314%);fill-opacity:1;" d="M 38.960938 42.496094 C 39.820312 41.570312 38.695312 40.84375 38.695312 40.84375 C 38.695312 40.84375 39.09375 41.304688 38.570312 41.832031 C 38.039062 42.359375 33.214844 43.679688 25.480469 44.078125 C 17.75 44.476562 9.355469 43.351562 9.089844 42.359375 C 8.832031 41.371094 13.386719 40.578125 13.386719 40.578125 C 12.859375 40.644531 6.515625 40.777344 6.3125 42.496094 C 6.117188 44.210938 9.089844 45.601562 20.988281 45.601562 C 32.882812 45.597656 38.109375 43.417969 38.960938 42.496094 Z M 38.960938 42.496094 "/>
<path style=" stroke:none;fill-rule:nonzero;fill:rgb(0.392157%,0%,0.784314%);fill-opacity:1;" d="M 34.335938 46.394531 C 29.117188 47.449219 13.257812 46.785156 13.257812 46.785156 C 13.257812 46.785156 23.5625 49.230469 35.328125 47.183594 C 40.953125 46.203125 41.28125 43.480469 41.28125 43.480469 C 41.28125 43.480469 39.558594 45.332031 34.335938 46.394531 Z M 34.335938 46.394531 "/>
</g>
</svg>
